<svg xmlns="http://www.w3.org/2000/svg" viewBox="0 0 1120 620" width="1120" height="620" role="img" aria-label="Sequence Happy Path">
  <rect x="0" y="0" width="1120" height="620" fill="#ffffff"/>
  <text x="40" y="42" font-family="sans-serif" font-size="22" font-weight="700" fill="#111827">Sequence - Happy Path</text>
  <g font-family="sans-serif" font-size="12" fill="#111827">
    <rect x="40" y="70" width="120" height="34" rx="6" fill="#ecfdf5" stroke="#059669"/><text x="100" y="92" text-anchor="middle">Candidate</text>
    <rect x="200" y="70" width="120" height="34" rx="6" fill="#eff6ff" stroke="#2563eb"/><text x="260" y="92" text-anchor="middle">Mini Program</text>
    <rect x="360" y="70" width="120" height="34" rx="6" fill="#eff6ff" stroke="#2563eb"/><text x="420" y="92" text-anchor="middle">Upload</text>
    <rect x="520" y="70" width="120" height="34" rx="6" fill="#eff6ff" stroke="#2563eb"/><text x="580" y="92" text-anchor="middle">Job Service</text>
    <rect x="680" y="70" width="120" height="34" rx="6" fill="#fff7ed" stroke="#f97316"/><text x="740" y="92" text-anchor="middle">AI Engine</text>
    <rect x="840" y="70" width="120" height="34" rx="6" fill="#eff6ff" stroke="#2563eb"/><text x="900" y="92" text-anchor="middle">Result</text>
    <rect x="990" y="70" width="100" height="34" rx="6" fill="#f5f3ff" stroke="#7c3aed"/><text x="1040" y="92" text-anchor="middle">Website</text>
  </g>
  <g stroke="#cbd5e1" stroke-width="1.5" stroke-dasharray="5 5">
    <line x1="100" y1="104" x2="100" y2="580"/><line x1="260" y1="104" x2="260" y2="580"/><line x1="420" y1="104" x2="420" y2="580"/><line x1="580" y1="104" x2="580" y2="580"/><line x1="740" y1="104" x2="740" y2="580"/><line x1="900" y1="104" x2="900" y2="580"/><line x1="1040" y1="104" x2="1040" y2="580"/>
  </g>
  <g font-family="sans-serif" font-size="12" fill="#334155" stroke="#334155" stroke-width="2">
    <line x1="100" y1="140" x2="260" y2="140"/><polygon points="260,140 250,134 250,146" fill="#334155"/><text x="180" y="132" text-anchor="middle">start challenge</text>
    <line x1="260" y1="190" x2="420" y2="190"/><polygon points="420,190 410,184 410,196" fill="#334155"/><text x="340" y="182" text-anchor="middle">upload audio</text>
    <line x1="420" y1="240" x2="580" y2="240"/><polygon points="580,240 570,234 570,246" fill="#334155"/><text x="500" y="232" text-anchor="middle">complete + audioRef</text>
    <line x1="580" y1="290" x2="740" y2="290"/><polygon points="740,290 730,284 730,296" fill="#334155"/><text x="660" y="282" text-anchor="middle">score task</text>
    <line x1="740" y1="340" x2="900" y2="340"/><polygon points="900,340 890,334 890,346" fill="#334155"/><text x="820" y="332" text-anchor="middle">structured score</text>
    <line x1="260" y1="390" x2="580" y2="390"/><polygon points="580,390 570,384 570,396" fill="#334155"/><text x="420" y="382" text-anchor="middle">poll task status</text>
    <line x1="580" y1="440" x2="900" y2="440"/><polygon points="900,440 890,434 890,446" fill="#334155"/><text x="740" y="432" text-anchor="middle">get result view</text>
    <line x1="260" y1="490" x2="1040" y2="490"/><polygon points="1040,490 1030,484 1030,496" fill="#334155"/><text x="650" y="482" text-anchor="middle">open website with source + score bucket</text>
  </g>
</svg>
