<svg xmlns="http://www.w3.org/2000/svg" viewBox="0 0 980 620" width="980" height="620" role="img" aria-label="Deployment Topology">
  <rect x="0" y="0" width="980" height="620" fill="#ffffff"/>
  <text x="40" y="44" font-family="sans-serif" font-size="24" font-weight="700" fill="#111827">Deployment Topology - Mainland Region</text>
  <rect x="40" y="75" width="900" height="485" rx="14" fill="#f8fafc" stroke="#475569" stroke-width="2"/>
  <text x="65" y="105" font-family="sans-serif" font-size="15" font-weight="700" fill="#334155">Mainland China Region</text>
  <rect x="80" y="140" width="160" height="70" rx="10" fill="#ecfdf5" stroke="#059669"/>
  <text x="160" y="175" text-anchor="middle" font-family="sans-serif" font-size="14" font-weight="700" fill="#064e3b">WAF / API GW</text>
  <text x="160" y="195" text-anchor="middle" font-family="sans-serif" font-size="12" fill="#065f46">TLS + rate limit</text>
  <rect x="310" y="120" width="280" height="155" rx="12" fill="#eff6ff" stroke="#2563eb" stroke-width="2"/>
  <text x="330" y="150" font-family="sans-serif" font-size="14" font-weight="700" fill="#1d4ed8">App Service Pool</text>
  <rect x="335" y="170" width="100" height="35" rx="6" fill="#ffffff" stroke="#60a5fa"/>
  <text x="385" y="193" text-anchor="middle" font-family="sans-serif" font-size="12" fill="#1e3a8a">BFF</text>
  <rect x="455" y="170" width="110" height="35" rx="6" fill="#ffffff" stroke="#60a5fa"/>
  <text x="510" y="193" text-anchor="middle" font-family="sans-serif" font-size="12" fill="#1e3a8a">Upload</text>
  <rect x="335" y="220" width="100" height="35" rx="6" fill="#ffffff" stroke="#60a5fa"/>
  <text x="385" y="243" text-anchor="middle" font-family="sans-serif" font-size="12" fill="#1e3a8a">Job API</text>
  <rect x="455" y="220" width="110" height="35" rx="6" fill="#ffffff" stroke="#60a5fa"/>
  <text x="510" y="243" text-anchor="middle" font-family="sans-serif" font-size="12" fill="#1e3a8a">Result</text>
  <rect x="665" y="130" width="200" height="70" rx="10" fill="#fff7ed" stroke="#f97316"/>
  <text x="765" y="164" text-anchor="middle" font-family="sans-serif" font-size="14" font-weight="700" fill="#9a3412">Queue + Workers</text>
  <text x="765" y="185" text-anchor="middle" font-family="sans-serif" font-size="12" fill="#9a3412">async scoring</text>
  <rect x="95" y="335" width="180" height="70" rx="10" fill="#f9fafb" stroke="#6b7280"/>
  <text x="185" y="368" text-anchor="middle" font-family="sans-serif" font-size="14" font-weight="700" fill="#374151">Relational DB</text>
  <text x="185" y="390" text-anchor="middle" font-family="sans-serif" font-size="12" fill="#4b5563">tasks / results</text>
  <rect x="330" y="335" width="180" height="70" rx="10" fill="#f9fafb" stroke="#6b7280"/>
  <text x="420" y="368" text-anchor="middle" font-family="sans-serif" font-size="14" font-weight="700" fill="#374151">Object Storage</text>
  <text x="420" y="390" text-anchor="middle" font-family="sans-serif" font-size="12" fill="#4b5563">voice files</text>
  <rect x="570" y="335" width="160" height="70" rx="10" fill="#f9fafb" stroke="#6b7280"/>
  <text x="650" y="368" text-anchor="middle" font-family="sans-serif" font-size="14" font-weight="700" fill="#374151">Cache</text>
  <text x="650" y="390" text-anchor="middle" font-family="sans-serif" font-size="12" fill="#4b5563">hot result</text>
  <rect x="770" y="335" width="125" height="70" rx="10" fill="#f9fafb" stroke="#6b7280"/>
  <text x="832" y="368" text-anchor="middle" font-family="sans-serif" font-size="14" font-weight="700" fill="#374151">Logs</text>
  <text x="832" y="390" text-anchor="middle" font-family="sans-serif" font-size="12" fill="#4b5563">metrics</text>
  <path d="M240 175 L310 190" stroke="#334155" stroke-width="2" fill="none"/>
  <polygon points="310,190 299,183 297,195" fill="#334155"/>
  <path d="M590 195 L665 165" stroke="#334155" stroke-width="2" fill="none"/>
  <polygon points="665,165 653,164 659,175" fill="#334155"/>
  <path d="M450 275 L420 335" stroke="#64748b" stroke-width="2" fill="none"/>
  <path d="M450 275 L185 335" stroke="#64748b" stroke-width="2" fill="none"/>
  <path d="M765 200 L650 335" stroke="#64748b" stroke-width="2" fill="none"/>
  <path d="M765 200 L832 335" stroke="#64748b" stroke-width="2" fill="none"/>
</svg>
